<svg width="32" height="16" viewBox="0 0 32 16" fill="none" xmlns="http://www.w3.org/2000/svg">
<path d="M5.33333 10.0333L8.7 6.66667L5.33333 3.3L1.96667 6.66667L5.33333 10.0333ZM23.3333 9.33333L26.6667 4L30 9.33333H23.3333ZM16 8C14.8889 8 13.9444 7.61111 13.1667 6.83333C12.3889 6.05556 12 5.11111 12 4C12 2.86667 12.3889 1.91667 13.1667 1.15C13.9444 0.383333 14.8889 0 16 0C17.1333 0 18.0833 0.383333 18.85 1.15C19.6167 1.91667 20 2.86667 20 4C20 5.11111 19.6167 6.05556 18.85 6.83333C18.0833 7.61111 17.1333 8 16 8ZM16 2.66667C15.6222 2.66667 15.3056 2.79444 15.05 3.05C14.7944 3.30556 14.6667 3.62222 14.6667 4C14.6667 4.37778 14.7944 4.69444 15.05 4.95C15.3056 5.20556 15.6222 5.33333 16 5.33333C16.3778 5.33333 16.6944 5.20556 16.95 4.95C17.2056 4.69444 17.3333 4.37778 17.3333 4C17.3333 3.62222 17.2056 3.30556 16.95 3.05C16.6944 2.79444 16.3778 2.66667 16 2.66667ZM0 16V13.9C0 12.9222 0.494444 12.1389 1.48333 11.55C2.47222 10.9611 3.75556 10.6667 5.33333 10.6667C5.62222 10.6667 5.9 10.6722 6.16667 10.6833C6.43333 10.6944 6.68889 10.7222 6.93333 10.7667C6.62222 11.2111 6.38889 11.6889 6.23333 12.2C6.07778 12.7111 6 13.2556 6 13.8333V16H0ZM8 16V13.8333C8 12.3889 8.73889 11.2222 10.2167 10.3333C11.6944 9.44444 13.6222 9 16 9C18.4 9 20.3333 9.44444 21.8 10.3333C23.2667 11.2222 24 12.3889 24 13.8333V16H8ZM26.6667 10.6667C28.2667 10.6667 29.5556 10.9611 30.5333 11.55C31.5111 12.1389 32 12.9222 32 13.9V16H26V13.8333C26 13.2556 25.9278 12.7111 25.7833 12.2C25.6389 11.6889 25.4222 11.2111 25.1333 10.7667C25.3778 10.7222 25.6278 10.6944 25.8833 10.6833C26.1389 10.6722 26.4 10.6667 26.6667 10.6667ZM16 11.6667C14.7333 11.6667 13.6 11.8333 12.6 12.1667C11.6 12.5 11.0111 12.8889 10.8333 13.3333H21.2C21 12.8889 20.4056 12.5 19.4167 12.1667C18.4278 11.8333 17.2889 11.6667 16 11.6667Z" fill="#943700"/>
</svg>
