<svg width="64" height="62" viewBox="0 0 64 62" fill="none" xmlns="http://www.w3.org/2000/svg">
<path d="M16 61.3333C13.7778 61.3333 11.8889 60.5556 10.3333 59C8.77778 57.4444 8 55.5556 8 53.3333C8 51.1111 8.77778 49.2222 10.3333 47.6667C11.8889 46.1111 13.7778 45.3333 16 45.3333C16.6222 45.3333 17.2 45.4 17.7333 45.5333C18.2667 45.6667 18.7778 45.8444 19.2667 46.0667L23.0667 41.3333C21.8222 39.9556 20.9556 38.4 20.4667 36.6667C19.9778 34.9333 19.8667 33.2 20.1333 31.4667L14.7333 29.6667C13.9778 30.7778 13.0222 31.6667 11.8667 32.3333C10.7111 33 9.42222 33.3333 8 33.3333C5.77778 33.3333 3.88889 32.5556 2.33333 31C0.777778 29.4444 0 27.5556 0 25.3333C0 23.1111 0.777778 21.2222 2.33333 19.6667C3.88889 18.1111 5.77778 17.3333 8 17.3333C10.2222 17.3333 12.1111 18.1111 13.6667 19.6667C15.2222 21.2222 16 23.1111 16 25.3333C16 25.4222 16 25.5111 16 25.6C16 25.6889 16 25.7778 16 25.8667L21.4 27.7333C22.2889 26.1333 23.4778 24.7778 24.9667 23.6667C26.4556 22.5556 28.1333 21.8444 30 21.5333V15.7333C28.2667 15.2444 26.8333 14.3 25.7 12.9C24.5667 11.5 24 9.86667 24 8C24 5.77778 24.7778 3.88889 26.3333 2.33333C27.8889 0.777778 29.7778 0 32 0C34.2222 0 36.1111 0.777778 37.6667 2.33333C39.2222 3.88889 40 5.77778 40 8C40 9.86667 39.4222 11.5 38.2667 12.9C37.1111 14.3 35.6889 15.2444 34 15.7333V21.5333C35.8667 21.8444 37.5444 22.5556 39.0333 23.6667C40.5222 24.7778 41.7111 26.1333 42.6 27.7333L48 25.8667C48 25.7778 48 25.6889 48 25.6C48 25.5111 48 25.4222 48 25.3333C48 23.1111 48.7778 21.2222 50.3333 19.6667C51.8889 18.1111 53.7778 17.3333 56 17.3333C58.2222 17.3333 60.1111 18.1111 61.6667 19.6667C63.2222 21.2222 64 23.1111 64 25.3333C64 27.5556 63.2222 29.4444 61.6667 31C60.1111 32.5556 58.2222 33.3333 56 33.3333C54.5778 33.3333 53.2778 33 52.1 32.3333C50.9222 31.6667 49.9778 30.7778 49.2667 29.6667L43.8667 31.4667C44.1333 33.2 44.0222 34.9222 43.5333 36.6333C43.0444 38.3444 42.1778 39.9111 40.9333 41.3333L44.7333 46C45.2222 45.7778 45.7333 45.6111 46.2667 45.5C46.8 45.3889 47.3778 45.3333 48 45.3333C50.2222 45.3333 52.1111 46.1111 53.6667 47.6667C55.2222 49.2222 56 51.1111 56 53.3333C56 55.5556 55.2222 57.4444 53.6667 59C52.1111 60.5556 50.2222 61.3333 48 61.3333C45.7778 61.3333 43.8889 60.5556 42.3333 59C40.7778 57.4444 40 55.5556 40 53.3333C40 52.4444 40.1444 51.5889 40.4333 50.7667C40.7222 49.9444 41.1111 49.2 41.6 48.5333L37.8 43.8C35.9778 44.8222 34.0333 45.3333 31.9667 45.3333C29.9 45.3333 27.9556 44.8222 26.1333 43.8L22.4 48.5333C22.8889 49.2 23.2778 49.9444 23.5667 50.7667C23.8556 51.5889 24 52.4444 24 53.3333C24 55.5556 23.2222 57.4444 21.6667 59C20.1111 60.5556 18.2222 61.3333 16 61.3333ZM8 28C8.75556 28 9.38889 27.7444 9.9 27.2333C10.4111 26.7222 10.6667 26.0889 10.6667 25.3333C10.6667 24.5778 10.4111 23.9444 9.9 23.4333C9.38889 22.9222 8.75556 22.6667 8 22.6667C7.24444 22.6667 6.61111 22.9222 6.1 23.4333C5.58889 23.9444 5.33333 24.5778 5.33333 25.3333C5.33333 26.0889 5.58889 26.7222 6.1 27.2333C6.61111 27.7444 7.24444 28 8 28ZM16 56C16.7556 56 17.3889 55.7444 17.9 55.2333C18.4111 54.7222 18.6667 54.0889 18.6667 53.3333C18.6667 52.5778 18.4111 51.9444 17.9 51.4333C17.3889 50.9222 16.7556 50.6667 16 50.6667C15.2444 50.6667 14.6111 50.9222 14.1 51.4333C13.5889 51.9444 13.3333 52.5778 13.3333 53.3333C13.3333 54.0889 13.5889 54.7222 14.1 55.2333C14.6111 55.7444 15.2444 56 16 56ZM32 10.6667C32.7556 10.6667 33.3889 10.4111 33.9 9.9C34.4111 9.38889 34.6667 8.75556 34.6667 8C34.6667 7.24444 34.4111 6.61111 33.9 6.1C33.3889 5.58889 32.7556 5.33333 32 5.33333C31.2444 5.33333 30.6111 5.58889 30.1 6.1C29.5889 6.61111 29.3333 7.24444 29.3333 8C29.3333 8.75556 29.5889 9.38889 30.1 9.9C30.6111 10.4111 31.2444 10.6667 32 10.6667ZM32 40C33.8667 40 35.4444 39.3556 36.7333 38.0667C38.0222 36.7778 38.6667 35.2 38.6667 33.3333C38.6667 31.4667 38.0222 29.8889 36.7333 28.6C35.4444 27.3111 33.8667 26.6667 32 26.6667C30.1333 26.6667 28.5556 27.3111 27.2667 28.6C25.9778 29.8889 25.3333 31.4667 25.3333 33.3333C25.3333 35.2 25.9778 36.7778 27.2667 38.0667C28.5556 39.3556 30.1333 40 32 40ZM48 56C48.7556 56 49.3889 55.7444 49.9 55.2333C50.4111 54.7222 50.6667 54.0889 50.6667 53.3333C50.6667 52.5778 50.4111 51.9444 49.9 51.4333C49.3889 50.9222 48.7556 50.6667 48 50.6667C47.2444 50.6667 46.6111 50.9222 46.1 51.4333C45.5889 51.9444 45.3333 52.5778 45.3333 53.3333C45.3333 54.0889 45.5889 54.7222 46.1 55.2333C46.6111 55.7444 47.2444 56 48 56ZM56 28C56.7556 28 57.3889 27.7444 57.9 27.2333C58.4111 26.7222 58.6667 26.0889 58.6667 25.3333C58.6667 24.5778 58.4111 23.9444 57.9 23.4333C57.3889 22.9222 56.7556 22.6667 56 22.6667C55.2444 22.6667 54.6111 22.9222 54.1 23.4333C53.5889 23.9444 53.3333 24.5778 53.3333 25.3333C53.3333 26.0889 53.5889 26.7222 54.1 27.2333C54.6111 27.7444 55.2444 28 56 28Z" fill="white"/>
</svg>
